<svg xmlns="http://www.w3.org/2000/svg" height="40" viewBox="0 -960 960 960" width="40"><path d="M784.667-142.667 484-443.333 345.333-304.667Q355-289 359.5-272.833 364-256.667 364-238q0 51.15-35.394 86.575Q293.212-116 242.106-116T155.5-151.394q-35.5-35.394-35.5-86.5t35.425-86.606Q190.85-360 242-360q18.667 0 35.167 4.833 16.5 4.834 32.166 14.5l138-138.666L308.667-618q-15.667 9-31.834 13.5Q260.667-600 242-600q-51.15 0-86.575-35.394Q120-670.788 120-721.894t35.394-86.606q35.394-35.5 86.5-35.5t86.606 35.425Q364-773.15 364-722q0 18.667-4.167 35.167-4.166 16.5-13.833 31.5l494 494v18.666h-55.333ZM580-537.333l-37.333-37.334 242-242H840V-798L580-537.333ZM242-624q40.267 0 69.133-28.867Q340-681.733 340-722q0-40.267-28.867-69.133Q282.267-820 242-820q-40.267 0-69.133 28.867Q144-762.267 144-722q0 40.267 28.867 69.133Q201.733-624 242-624Zm242.667 138.667q-3.067 0-4.534 1.8-1.466 1.8-1.466 4.2 0 3.066 1.466 4.533 1.467 1.467 4.534 1.467 2.4 0 4.2-1.467 1.8-1.467 1.8-4.533 0-2.4-1.8-4.2-1.8-1.8-4.2-1.8ZM242-140q40.267 0 69.133-28.867Q340-197.733 340-238q0-40.267-28.867-69.133Q282.267-336 242-336q-40.267 0-69.133 28.867Q144-278.267 144-238q0 40.267 28.867 69.133Q201.733-140 242-140Z"/></svg>